inDegrees=yes
name=ik_S54_A11_T01
DataType=double
version=3
OpenSimVersion=4.3-2021-08-27-4bc7ad9
endheader
time	pelvis_tilt	pelvis_list	pelvis_rotation	pelvis_tx	pelvis_ty	pelvis_tz	hip_flexion_r	hip_adduction_r	hip_rotation_r	knee_angle_r	knee_angle_r_beta	ankle_angle_r	subtalar_angle_r	mtp_angle_r	hip_flexion_l	hip_adduction_l	hip_rotation_l	knee_angle_l	knee_angle_l_beta	ankle_angle_l	subtalar_angle_l	mtp_angle_l	lumbar_extension	lumbar_bending	lumbar_rotation	arm_flex_r	arm_add_r	arm_rot_r	elbow_flex_r	pro_sup_r	wrist_flex_r	wrist_dev_r	arm_flex_l	arm_add_l	arm_rot_l	elbow_flex_l	pro_sup_l	wrist_flex_l	wrist_dev_l
9.619999999999884	2.063837721254542	-2.104050741164735	37.20835616974614	0	0.9399999999999999	0	28.35112211503125	-9.155110935259843	-8.30593177439499	31.13684024868039	0.5434403810069628	0	0	0	28.35112211503125	-9.155110935259843	-8.30593177439499	31.13684024868039	0.5434403810069628	0	0	0	0.8012702142150151	-2.25689880298131	21.34275133920906	98.53896418738599	9.016079310239176	6.478450401795748	34.55025103169818	77.36687650857955	0	-5.38806921148701e-36	6.746080520063823	-10.13314450087862	-3.924412131859929	4.335787502650912	113.257230340924	0	-5.38806921148701e-36
9.639999999999883	2.103799871744814	-2.105195116887901	37.32330555774846	0	0.9399999999999999	0	28.35621756060392	-9.155971101751071	-8.307038543884433	31.14220481577796	0.5435340103657595	-2.598349608409298e-50	0	0	28.35621756060392	-9.155971101751071	-8.307038543884433	31.14220481577796	0.5435340103657595	-2.598349608409298e-50	0	0	0.8329177894841417	-2.282318136379995	21.35533056572621	98.57204773795357	9.139381041186168	6.36112412377185	34.11695685175841	77.90695604094664	0	-1.886213310603535e-35	6.776773592490096	-10.18662619643974	-3.991778661527674	4.314634829674149	113.1979354412148	0	-1.886213310603535e-35
9.659999999999883	2.116961548764297	-2.109623900035138	37.3973578268894	0	0.9399999999999999	0	28.36219570556514	-9.156973451502807	-8.308331651186451	31.14853131480091	0.5436444286038342	0	0	0	28.36219570556514	-9.156973451502807	-8.308331651186451	31.14853131480091	0.5436444286038342	0	0	0	0.8396913548151393	-2.293765526162891	21.31515239406333	98.56127418764846	9.131414425660576	6.323308269499641	33.92283299137232	78.54489383866486	0	0	6.804794317142679	-10.23072371062665	-4.202829318278565	4.295099076569434	113.2411967302435	0	0
9.679999999999882	2.180240770534625	-2.125539667310416	37.53333696827889	0	0.9399999999999999	0	28.36790595121272	-9.157936351545231	-8.309571414775563	31.15454160063887	0.5437493278806926	0	0	0	28.36790595121272	-9.157936351545231	-8.309571414775563	31.15454160063887	0.5437493278806926	0	0	0	0.8809984052744841	-2.345214396121704	21.33227507734752	98.57441434377006	9.234296555839769	6.109299570975523	33.60111822378355	79.26081064424591	0	0	6.801116891396037	-10.36818063923726	-4.298018260915902	4.288427006427324	113.3047986929603	0	0
9.699999999999882	2.161805726389611	-2.120652441997379	37.60148629758436	0	0.9399999999999999	0	28.37361377601698	-9.158898745073078	-8.310810729146208	31.16054626867532	0.5438541291084179	0	0	0	28.37361377601698	-9.158898745073078	-8.310810729146208	31.16054626867532	0.5438541291084179	0	0	0	0.8682261646143172	-2.329975776353541	21.28812387508158	98.65276900757983	9.653762744668011	6.327390062659666	33.18235124811522	79.42691950091313	0	0	6.813418128629525	-10.34555729682695	-4.529015097445246	4.286552237813886	113.4216555156794	0	0
9.719999999999882	2.120448786709383	-2.056508283862969	37.68716554131129	0	0.9399999999999999	0	28.38037725618356	-9.160029798646253	-8.312271869294648	31.16770624982826	0.5439790943539176	0	0	0	28.38037725618356	-9.160029798646253	-8.312271869294648	31.16770624982826	0.5439790943539176	0	0	0	0.8734462812324352	-2.253509372423508	21.25325937848667	98.61685662607988	9.81725973301876	6.472308997778092	32.55940136241937	79.46041408520418	0	0	6.753863356302295	-10.20708207999444	-4.500084615806901	4.297506457042099	113.3731715470903	0	0
9.739999999999881	2.069603609794316	-2.005899048997052	37.74435292753833	0	0.9399999999999999	0	28.38628420031152	-9.16102425916187	-8.313553542314986	31.17392031267585	0.5440875502105337	0	0	0	28.38628420031152	-9.16102425916187	-8.313553542314986	31.17392031267585	0.5440875502105337	0	0	0	0.8639969912713269	-2.182510638475704	21.24417663806726	98.62311061951227	9.92850783201181	6.40706779762174	32.39963394931522	79.70805516957175	0	0	6.70483617110914	-10.09036926382177	-4.659377424200894	4.324453743363319	113.4877421472364	0	0
